<svg xmlns="http://www.w3.org/2000/svg" width="960" height="560" viewBox="0 0 960 560"><rect width="100%" height="100%" fill="#ffffff"/><text x="90" y="24" font-family="sans-serif" font-size="20" font-weight="600">Quick profile: baseline vs header-only vs full onion (2 hops, 1 circuit)</text><text x="24" y="255" font-family="sans-serif" font-size="14" transform="rotate(-90 24,255)">Mean total latency (ms)</text><line x1="90" y1="40.00" x2="930" y2="40.00" stroke="#e5e7eb" stroke-width="1"/><text x="16" y="44.00" font-family="sans-serif" font-size="12" fill="#4b5563">3932.8</text><line x1="90" y1="126.00" x2="930" y2="126.00" stroke="#e5e7eb" stroke-width="1"/><text x="16" y="130.00" font-family="sans-serif" font-size="12" fill="#4b5563">3146.2</text><line x1="90" y1="212.00" x2="930" y2="212.00" stroke="#e5e7eb" stroke-width="1"/><text x="16" y="216.00" font-family="sans-serif" font-size="12" fill="#4b5563">2359.7</text><line x1="90" y1="298.00" x2="930" y2="298.00" stroke="#e5e7eb" stroke-width="1"/><text x="16" y="302.00" font-family="sans-serif" font-size="12" fill="#4b5563">1573.1</text><line x1="90" y1="384.00" x2="930" y2="384.00" stroke="#e5e7eb" stroke-width="1"/><text x="16" y="388.00" font-family="sans-serif" font-size="12" fill="#4b5563">786.6</text><line x1="90" y1="470.00" x2="930" y2="470.00" stroke="#e5e7eb" stroke-width="1"/><text x="16" y="474.00" font-family="sans-serif" font-size="12" fill="#4b5563">-0.0</text><line x1="90.00" y1="40" x2="90.00" y2="470" stroke="#f3f4f6" stroke-width="1"/><text x="90.00" y="515" font-family="sans-serif" font-size="12" fill="#4b5563" text-anchor="middle">16MB</text><line x1="258.00" y1="40" x2="258.00" y2="470" stroke="#f3f4f6" stroke-width="1"/><text x="258.00" y="515" font-family="sans-serif" font-size="12" fill="#4b5563" text-anchor="middle">32MB</text><line x1="426.00" y1="40" x2="426.00" y2="470" stroke="#f3f4f6" stroke-width="1"/><text x="426.00" y="515" font-family="sans-serif" font-size="12" fill="#4b5563" text-anchor="middle">64MB</text><line x1="594.00" y1="40" x2="594.00" y2="470" stroke="#f3f4f6" stroke-width="1"/><text x="594.00" y="515" font-family="sans-serif" font-size="12" fill="#4b5563" text-anchor="middle">128MB</text><line x1="762.00" y1="40" x2="762.00" y2="470" stroke="#f3f4f6" stroke-width="1"/><text x="762.00" y="515" font-family="sans-serif" font-size="12" fill="#4b5563" text-anchor="middle">256MB</text><line x1="930.00" y1="40" x2="930.00" y2="470" stroke="#f3f4f6" stroke-width="1"/><text x="930.00" y="515" font-family="sans-serif" font-size="12" fill="#4b5563" text-anchor="middle">512MB</text><circle cx="90.00" cy="464.60" r="3.5" fill="#1f77b4"/><circle cx="258.00" cy="459.80" r="3.5" fill="#1f77b4"/><circle cx="426.00" cy="448.53" r="3.5" fill="#1f77b4"/><circle cx="594.00" cy="427.45" r="3.5" fill="#1f77b4"/><circle cx="762.00" cy="386.86" r="3.5" fill="#1f77b4"/><circle cx="930.00" cy="300.03" r="3.5" fill="#1f77b4"/><path d="M 90.00 464.60 L 258.00 459.80 L 426.00 448.53 L 594.00 427.45 L 762.00 386.86 L 930.00 300.03" fill="none" stroke="#1f77b4" stroke-width="2.5"/><rect x="90" y="529" width="12" height="12" fill="#1f77b4"/><text x="108" y="540" font-family="sans-serif" font-size="12">Direct baseline</text><circle cx="90.00" cy="463.91" r="3.5" fill="#ff7f0e"/><circle cx="258.00" cy="459.24" r="3.5" fill="#ff7f0e"/><circle cx="426.00" cy="447.13" r="3.5" fill="#ff7f0e"/><circle cx="594.00" cy="425.64" r="3.5" fill="#ff7f0e"/><circle cx="762.00" cy="383.07" r="3.5" fill="#ff7f0e"/><circle cx="930.00" cy="278.31" r="3.5" fill="#ff7f0e"/><path d="M 90.00 463.91 L 258.00 459.24 L 426.00 447.13 L 594.00 425.64 L 762.00 383.07 L 930.00 278.31" fill="none" stroke="#ff7f0e" stroke-width="2.5"/><rect x="233" y="529" width="12" height="12" fill="#ff7f0e"/><text x="251" y="540" font-family="sans-serif" font-size="12">Header-only 2 hops 1 circuit</text><circle cx="90.00" cy="455.69" r="3.5" fill="#d62728"/><circle cx="258.00" cy="443.91" r="3.5" fill="#d62728"/><circle cx="426.00" cy="418.37" r="3.5" fill="#d62728"/><circle cx="594.00" cy="370.19" r="3.5" fill="#d62728"/><circle cx="762.00" cy="275.85" r="3.5" fill="#d62728"/><circle cx="930.00" cy="79.09" r="3.5" fill="#d62728"/><path d="M 90.00 455.69 L 258.00 443.91 L 426.00 418.37 L 594.00 370.19 L 762.00 275.85 L 930.00 79.09" fill="none" stroke="#d62728" stroke-width="2.5"/><rect x="467" y="529" width="12" height="12" fill="#d62728"/><text x="485" y="540" font-family="sans-serif" font-size="12">Full onion 2 hops 1 circuit</text></svg>